# xmcd
#
# Track frame offsets:
#   150
#   21101
#   34236
#   54678
#   71653
#   95049
#   107348
#   127978
#   149977
#
# Disc length: 2290 seconds
#
# Revision: 0
# Processed by: cddbd v1.5PL3 Copyright (c) Steve Scherf et al.
# Submitted via: Click'N Design 3D 4.8
#
DISCID=8408f009
DTITLE=Live at the Apple Store - Thrice/Thursday
DYEAR=2004
DGENRE=Blues
TTITLE0=melting pot of wax
TTITLE1=cold cash colder hearts
TTITLE2=the artist in the ambulance
TTITLE3=stare at the sun
TTITLE4=war all the time
TTITLE5=this song brought to you by a falling bomb
TTITLE6=this side of brightness
TTITLE7=signals over the air 
TTITLE8=division street
EXTD=
EXTT0=
EXTT1=
EXTT2=
EXTT3=
EXTT4=
EXTT5=
EXTT6=
EXTT7=
EXTT8=
PLAYORDER=
